<?xml version="1.0" encoding="utf-8"?>
<svg version="1.1" id="Layer_1" xmlns="http://www.w3.org/2000/svg" xmlns:xlink="http://www.w3.org/1999/xlink" x="0px" y="0px"
	 viewBox="0 0 1024 1024" style="enable-background:new 0 0 1024 1024;" xml:space="preserve">
<style type="text/css">
	.st0{fill:#FFFFFF;}
</style>
<path d="M502.5,0.1c289.8-5.9,527.6,231.6,521.3,523.4c-5.9,276.8-235.5,506.7-524.1,500.3C223.4,1017.8-6.4,788.4,0.1,499.7
	C6.3,225.9,228.6,4.5,502.5,0.1z"/>
<path class="st0" d="M289.9,454.5c-1.5-2-2.3-2.8-2.8-3.7c-16.8-29.8-30.7-60.8-40.9-93.4c-2.7-8.5-4.5-17.3-9.9-24.8
	c-7.4-10.4-19.9-13.7-31.3-7.9c-11.2,5.7-15.7,16.1-18,27.5c-7.3,35.3-5.8,70.5,2.8,105.3c17.7,71.9,55.5,129.5,120.7,167.1
	c4.7,2.7,6.9,5.9,6.9,11.5c-0.3,30.6-0.7,61.2-2.3,91.7c-2.2,42.3-5.6,84.6-11,126.6c-2.2,17.3-4.8,34.6-6.8,52
	c-0.8,7.3,2.9,11.8,8.8,12.3c5.9,0.5,10-3.3,11.1-10.3c6.5-41,11.2-82.2,14.6-123.6c4-48.6,6.6-97.2,6.3-146
	c-0.1-15.2-6-26.2-19.7-33.4c-18.7-9.9-35-23.2-49.1-38.9c-49.6-55.6-71.1-120.7-64.9-194.9c0.7-8.2,1.3-16.6,5.8-24
	c1.4-2.4,3-5.2,6.4-5c3.5,0.2,4.2,3.4,5.3,6c0.6,1.4,1.1,2.9,1.5,4.3c8,27.5,18.7,54,31.2,79.8c6.5,13.3,12.7,26.9,21.5,38.9
	c9.3,12.6,23.1,11.2,30.4-2.6c2.6-4.9,3.8-10.2,5.2-15.5c7-27.1,6.8-55,7.6-82.7c1.8-64.9,13.8-128,33.4-189.7
	c4.7-14.8,10.7-29.1,20-41.8c2.5-3.4,5.5-8,10.1-7.3c4.8,0.7,6,6,7.4,10c3.9,11,5,22.6,5.4,34.2c1.7,53.5-5.2,106.4-11,159.4
	c-1.9,17.4-3.5,34.8-1.8,52.3c1,10,2.3,20,7.5,28.9c6.8,11.7,19.3,13.5,29.3,4.5c5-4.5,8.4-10.1,11-16.1
	c14.9-34,29.2-68.2,42.7-102.8c16.7-42.5,31-85.8,47.1-128.4c7.1-18.6,15.7-36.5,28.5-52.1c1.7-2.1,3.6-5.8,6.3-4.9
	c2.5,0.8,2.6,4.8,3.1,7.5c3.8,17.9,1,35.3-4.4,52.3c-12.1,38-25.5,75.7-33,115c-6.5,34-10.6,68.2-12.1,102.7
	c-0.5,10.9-0.2,22.3,7.6,31.1c9.7,11.2,17.7,11.1,25.2-1.3c20.2-33.3,36.3-68.7,52.1-104.1c17.2-38.5,33.8-77.2,53.7-114.4
	c8.1-15.2,16.3-30.5,29.4-42.3c7.4-6.7,10.8-5.6,13.8,3.9c3.7,11.8,2.5,23.9,0.8,35.7c-4.7,33.2-14.9,65-24.8,96.9
	c-15,48.5-32.1,96.5-41.9,146.5c-2.7,13.9-6.1,27.8-3.5,42.2c2.2,12.3,11.6,20.6,21.7,19.5c8.8-1,14.5-6.6,19.4-13.3
	c29.7-40.3,59.1-80.7,89-120.8c18.9-25.4,36.6-51.7,56.5-76.4c2.8-3.5,6.1-9,10.6-7c4,1.7,2.6,7.8,2.2,12.1
	c-2.3,26.9-10.8,52.1-20.7,76.9c-32.4,80.7-75.4,155.5-126.9,225.4c-19,25.8-40.2,49.9-68.9,65.3c-18.4,9.9-27.4,24.8-28.8,45.1
	c-0.1,1.5-0.3,3-0.5,4.6c-10.6,65.7-10.5,131.4-0.6,197.1c1.2,7.8,5.5,11.9,11.8,11.2c6.4-0.8,9.7-6.4,8.5-14.4
	c-10.7-68.9-9.3-137.6,3-206.1c1.3-7.1,4.5-12.6,10.9-16.2c5.3-3,10.7-5.9,15.8-9.3c24.5-16.3,44.2-37.6,62-60.8
	c43.1-56.5,78.8-117.5,109.6-181.4c17.1-35.4,32.8-71.4,41.1-110.2c2.8-13.2,6.4-26.4,3.6-40.1c-3.9-18.8-22.7-26-38.3-14.8
	c-5.9,4.3-10.5,9.9-14.8,15.7c-45.3,61.6-90.6,123.2-136,184.8c-2.7,3.6-5,7.6-9,10.4c-1.8-2.3-1.5-4.8-1.5-7.1
	c0-11,2.4-21.7,4.6-32.4c8.9-44,23.7-86.2,37-128.9c12.1-38.5,24.8-76.9,29.8-117.2c1.8-14.6,2-29.3-3.7-43.3
	c-7.8-19.1-25.4-24-41.9-11.7c-9.8,7.3-17.2,16.8-23.6,27c-18.2,29.1-32.4,60.4-46.6,91.6c-20.3,44.7-39.2,90.1-63.1,133.1
	c-0.9,1.7-1.4,4-4.1,5.2c0-2.2-0.1-3.7,0-5.2c0.4-7.6,0.6-15.3,1.1-22.9c3.6-51.7,13.5-102.1,29.7-151.3
	c6.7-20.3,14.6-40.3,18.3-61.4c3.2-18.1,3.7-36.2-4.4-53.3c-6.2-13.3-19.6-16.7-31.7-8.4c-4.2,2.9-7.5,6.6-10.7,10.6
	c-17.3,21.9-28.6,47-37.3,73.1c-24,71.7-51.2,142.1-81.9,211.2c-1.4,3.3-2.3,7-6.1,9.1c-3.7-12.4-4.9-24.8-4.2-37.3
	c1.7-28.1,5.6-56.1,8.2-84.1c3.7-38.7,8.2-77.4,4.6-116.4c-1.3-13.9-2.6-27.9-10-40.3c-9.7-16.4-27.2-19.3-41.6-6.7
	c-6.3,5.5-11.1,12.3-15.1,19.6c-13.5,24.3-20.9,50.8-27.8,77.5c-16,62.1-22.2,125.5-23.7,189.4C296.8,421.7,294.7,437.6,289.9,454.5
	z"/>
</svg>
